Units are S.I. units (second, meters, Newtons, ...)
Angles are in degrees.
name squat
datarows 60
datacolumns 19
range 0.401003 0.992481
endheader
time	exo_pelvis_tx	exo_pelvis_ty	exo_pelvis_tilt	exo_hip_r	exo_hip_l	exo_knee_r	exo_knee_l	r_ankle_coupling	l_ankle_coupling	planar_xdot	planar_zdot	planar_rotydot	exo_hip_rdot	exo_hip_ldot	exo_knee_rdot	exo_knee_ldot	r_ankle_couplingdot	l_ankle_couplingdot	
0.401003	-0.405979	0.893929	0.0450987	-5.51371	-5.51371	-0.0201164	-0.0201164	5.48888	5.48888	5.65094	-0.639796	0.378237	0.164911	0.164912	-20.3508	-20.3508	19.8076	19.8076	
0.411028	-0.404987	0.893807	0.0492083	-5.50754	-5.50754	-0.236436	-0.236436	5.69492	5.69492	5.64659	-0.652251	0.336987	1.9242	1.9242	-24.4104	-24.4104	22.1491	22.1492	
0.421053	-0.403991	0.893668	0.0537463	-5.49103	-5.49103	-0.479527	-0.479527	5.91696	5.91696	5.64626	-0.670479	0.295682	3.54025	3.54026	-28.1473	-28.1474	24.3113	24.3114	
0.431078	-0.402992	0.893512	0.0586688	-5.46455	-5.46455	-0.748265	-0.748265	6.1543	6.1543	5.6494	-0.694162	0.254334	5.01867	5.01867	-31.573	-31.573	26.2999	26.3001	
0.441103	-0.40199	0.89334	0.0639319	-5.42846	-5.42846	-1.04153	-1.04153	6.40621	6.40621	5.65546	-0.722984	0.212951	6.36501	6.36502	-34.6985	-34.6986	28.1205	28.1207	
0.451128	-0.400986	0.893153	0.0694916	-5.38312	-5.38312	-1.3582	-1.3582	6.67197	6.67197	5.66388	-0.756626	0.171542	7.58488	7.58489	-37.5351	-37.5353	29.7788	29.779	
0.461153	-0.39998	0.892951	0.075304	-5.32889	-5.32889	-1.69714	-1.69714	6.95088	6.95088	5.67413	-0.794773	0.130119	8.68385	8.68385	-40.0942	-40.0943	31.2804	31.2806	
0.471178	-0.398975	0.892734	0.0813249	-5.26614	-5.26614	-2.05725	-2.05725	7.24222	7.24222	5.68565	-0.837107	0.0886899	9.6675	9.6675	-42.3869	-42.387	32.631	32.6313	
0.481203	-0.39797	0.892503	0.0875106	-5.19523	-5.19523	-2.43739	-2.43739	7.54526	7.54526	5.69789	-0.883312	0.0472651	10.5414	10.5414	-44.4245	-44.4246	33.8363	33.8365	
0.491228	-0.396967	0.892258	0.093817	-5.11652	-5.11652	-2.83645	-2.83645	7.85931	7.85931	5.71029	-0.933069	0.00585417	11.3112	11.3112	-46.2182	-46.2183	34.9018	34.9021	
0.501253	-0.395965	0.892	0.1002	-5.03038	-5.03038	-3.25329	-3.25329	8.18363	8.18363	5.72232	-0.986063	-0.0355331	11.9823	11.9824	-47.7793	-47.7794	35.8333	35.8336	
0.511278	-0.394966	0.891729	0.106616	-4.93717	-4.93717	-3.68681	-3.68681	8.51751	8.51751	5.73342	-1.04198	-0.0768871	12.5605	12.5605	-49.119	-49.1191	36.6364	36.6366	
0.521303	-0.393971	0.891445	0.113021	-4.83725	-4.83725	-4.13587	-4.13587	8.86025	8.86025	5.74304	-1.10049	-0.118198	13.0513	13.0513	-50.2486	-50.2488	37.3167	37.317	
0.531328	-0.392981	0.89115	0.119371	-4.73098	-4.73098	-4.59936	-4.59936	9.21112	9.21112	5.75063	-1.16129	-0.159456	13.4603	13.4603	-51.1793	-51.1795	37.88	37.8802	
0.541353	-0.391995	0.890844	0.125621	-4.61873	-4.61873	-5.07614	-5.07614	9.56941	9.56941	5.75564	-1.22406	-0.200652	13.793	13.793	-51.9224	-51.9226	38.3318	38.332	
0.551378	-0.391016	0.890526	0.131729	-4.50086	-4.50086	-5.56511	-5.56511	9.9344	9.9344	5.75752	-1.28848	-0.241775	14.055	14.055	-52.4892	-52.4893	38.6778	38.6781	
0.561404	-0.390044	0.890198	0.137649	-4.37774	-4.37774	-6.06513	-6.06513	10.3054	10.3054	5.75572	-1.35424	-0.282816	14.252	14.252	-52.8908	-52.8909	38.9237	38.924	
0.571429	-0.389079	0.889861	0.143339	-4.24972	-4.24972	-6.57509	-6.57509	10.6816	10.6816	5.74969	-1.42101	-0.323766	14.3894	14.3894	-53.1385	-53.1387	39.0751	39.0754	
0.581454	-0.388122	0.889513	0.148753	-4.11717	-4.11717	-7.09386	-7.09386	11.0624	11.0624	5.73888	-1.48848	-0.364614	14.473	14.473	-53.2436	-53.2437	39.1377	39.138	
0.591479	-0.387174	0.889157	0.153849	-3.98045	-3.98045	-7.62031	-7.62031	11.4471	11.4471	5.72274	-1.55633	-0.405351	14.5082	14.5082	-53.2173	-53.2175	39.1172	39.1174	
0.601504	-0.386237	0.888792	0.158581	-3.83992	-3.83992	-8.15334	-8.15334	11.8348	11.8348	5.70072	-1.62426	-0.445967	14.5006	14.5006	-53.0709	-53.071	39.0191	39.0193	
0.611529	-0.38531	0.888419	0.162907	-3.69595	-3.69595	-8.69181	-8.69181	12.225	12.225	5.67228	-1.69193	-0.486453	14.4559	14.4559	-52.8156	-52.8157	38.8492	38.8494	
0.621554	-0.384395	0.888038	0.166782	-3.54891	-3.54891	-9.2346	-9.2346	12.6169	12.6169	5.63685	-1.75903	-0.526798	14.3796	14.3796	-52.4627	-52.4628	38.6131	38.6133	
0.631579	-0.383492	0.88765	0.170162	-3.39914	-3.39914	-9.78059	-9.78059	13.0097	13.0097	5.5939	-1.82525	-0.566994	14.2772	14.2772	-52.0234	-52.0235	38.3164	38.3166	
0.641604	-0.382602	0.887255	0.173004	-3.24702	-3.24702	-10.3287	-10.3287	13.4028	13.4028	5.54286	-1.89026	-0.607029	14.1545	14.1545	-51.5089	-51.509	37.9649	37.965	
0.651629	-0.381726	0.886854	0.175262	-3.09291	-3.09291	-10.8777	-10.8777	13.7955	13.7955	5.4832	-1.95376	-0.646896	14.0169	14.0169	-50.9305	-50.9306	37.5641	37.5642	
0.661654	-0.380865	0.886447	0.176894	-2.93718	-2.93718	-11.4265	-11.4265	14.187	14.187	5.41436	-2.01542	-0.686582	13.87	13.87	-50.2996	-50.2996	37.1197	37.1198	
0.671679	-0.380019	0.886035	0.177855	-2.78018	-2.78018	-11.9741	-11.9741	14.5766	14.5766	5.33579	-2.07493	-0.726081	13.7194	13.7194	-49.6272	-49.6273	36.6374	36.6375	
0.681704	-0.379189	0.885618	0.178102	-2.62227	-2.62227	-12.5193	-12.5193	14.9636	14.9636	5.24694	-2.13197	-0.76538	13.5708	13.5708	-48.9247	-48.9247	36.1228	36.1229	
0.691729	-0.378377	0.885197	0.17759	-2.46383	-2.46383	-13.0609	-13.0609	15.3473	15.3473	5.14726	-2.18623	-0.804471	13.4296	13.4296	-48.2032	-48.2033	35.5816	35.5817	
0.701754	-0.377582	0.884771	0.176276	-2.3052	-2.3052	-13.5978	-13.5978	15.7269	15.7269	5.0362	-2.23737	-0.843344	13.3015	13.3015	-47.4742	-47.4742	35.0194	35.0195	
0.711779	-0.376806	0.884342	0.174115	-2.14677	-2.14677	-14.129	-14.129	16.1018	16.1018	4.91322	-2.2851	-0.881989	13.192	13.192	-46.7487	-46.7487	34.442	34.442	
0.721805	-0.376049	0.883911	0.171063	-1.98888	-1.98888	-14.6533	-14.6533	16.4713	16.4713	4.77775	-2.32909	-0.920397	13.1068	13.1068	-46.0381	-46.0381	33.8548	33.8549	
0.73183	-0.375312	0.883476	0.167077	-1.83191	-1.83191	-15.1695	-15.1695	16.8345	16.8345	4.62926	-2.36903	-0.958557	13.0513	13.0513	-45.3535	-45.3536	33.2637	33.2638	
0.741855	-0.374597	0.88304	0.162113	-1.67621	-1.67621	-15.6767	-15.6767	17.1909	17.1909	4.46719	-2.40459	-0.996461	13.0313	13.0313	-44.7064	-44.7064	32.6742	32.6743	
0.75188	-0.373903	0.882602	0.156126	-1.52215	-1.52215	-16.1735	-16.1735	17.5397	17.5397	4.29099	-2.43547	-1.0341	13.0522	13.0522	-44.1078	-44.1078	32.092	32.0921	
0.761905	-0.373232	0.882162	0.149073	-1.37009	-1.37009	-16.6589	-16.6589	17.8801	17.8801	4.10011	-2.46134	-1.07146	13.1196	13.1196	-43.5691	-43.5691	31.5228	31.5228	
0.77193	-0.372584	0.881722	0.140909	-1.22039	-1.22039	-17.1319	-17.1319	18.2115	18.2115	3.894	-2.48188	-1.10853	13.2392	13.2392	-43.1014	-43.1014	30.9722	30.9722	
0.781955	-0.37196	0.881282	0.131591	-1.07342	-1.07342	-17.5912	-17.5912	18.5332	18.5332	3.67211	-2.49679	-1.14531	13.4166	13.4166	-42.7161	-42.7161	30.4459	30.4459	
0.79198	-0.371361	0.880842	0.121075	-0.92954	-0.92954	-18.0357	-18.0357	18.8443	18.8443	3.4339	-2.50574	-1.18178	13.6572	13.6572	-42.4244	-42.4244	29.9495	29.9495	
0.802005	-0.370788	0.880403	0.109384	-0.789061	-0.789061	-18.4646	-18.4646	19.1444	19.1444	3.17931	-2.50865	-1.21738	13.9643	13.9643	-42.2351	-42.2351	29.488	29.488	
0.81203	-0.370247	0.879961	0.0986681	-0.650544	-0.650544	-18.8854	-18.8854	19.4374	19.4374	2.92449	-2.51281	-1.23419	14.2653	14.2653	-42.077	-42.077	29.045	29.045	
0.822055	-0.369742	0.879514	0.0899199	-0.513002	-0.513002	-19.3024	-19.3024	19.7256	19.7256	2.67705	-2.52177	-1.22491	14.5263	14.5263	-41.9145	-41.9145	28.6112	28.6112	
0.83208	-0.369272	0.879061	0.0830582	-0.376181	-0.376181	-19.7158	-19.7158	20.0091	20.0091	2.43653	-2.53538	-1.19138	14.7507	14.7507	-41.7496	-41.7496	28.1873	28.1873	
0.842105	-0.368838	0.878603	0.0780017	-0.239829	-0.239829	-20.1261	-20.1261	20.288	20.288	2.20249	-2.55352	-1.13542	14.9421	14.9421	-41.5848	-41.5848	27.7739	27.7739	
0.85213	-0.368439	0.878138	0.0746696	-0.103693	-0.103693	-20.5336	-20.5336	20.5627	20.5627	1.97447	-2.57606	-1.05884	15.1039	15.1039	-41.422	-41.422	27.3714	27.3714	
0.862155	-0.368077	0.877668	0.0729807	0.0324804	0.0324804	-20.9386	-20.9386	20.8333	20.8333	1.75201	-2.60288	-0.963466	15.2396	15.2396	-41.2636	-41.2636	26.9804	26.9804	
0.87218	-0.367751	0.87719	0.0728539	0.168943	0.168943	-21.3416	-21.3416	21.1	21.1	1.53467	-2.63384	-0.851122	15.3527	15.3527	-41.1118	-41.1118	26.6015	26.6015	
0.882206	-0.367461	0.876706	0.0742083	0.305949	0.305949	-21.7429	-21.7429	21.3629	21.3629	1.32198	-2.66882	-0.723626	15.4468	15.4468	-40.9687	-40.9687	26.2352	26.2352	
0.892231	-0.367208	0.876214	0.0769628	0.44375	0.44375	-22.1429	-22.1429	21.6223	21.6223	1.1135	-2.7077	-0.582799	15.5253	15.5253	-40.8366	-40.8366	25.8821	25.8821	
0.902256	-0.366992	0.875714	0.0810363	0.582598	0.582598	-22.5419	-22.5419	21.8784	21.8784	0.908762	-2.75034	-0.430461	15.5916	15.5916	-40.7176	-40.7176	25.5427	25.5427	
0.912281	-0.366813	0.875207	0.0863477	0.722748	0.722748	-22.9402	-22.9402	22.1313	22.1313	0.707324	-2.79661	-0.268433	15.6494	15.6494	-40.6141	-40.6141	25.2176	25.2176	
0.922306	-0.366672	0.87469	0.0928161	0.864451	0.864451	-23.3383	-23.3383	22.3812	22.3812	0.508728	-2.8464	-0.0985359	15.702	15.702	-40.5282	-40.5282	24.9074	24.9074	
0.932331	-0.366567	0.874165	0.10036	1.00796	1.00796	-23.7365	-23.7365	22.6284	22.6284	0.31252	-2.89956	0.07741	15.7531	15.7531	-40.462	-40.462	24.6125	24.6125	
0.942356	-0.366501	0.873631	0.108899	1.15353	1.15353	-24.1352	-24.1352	22.8729	22.8729	0.118246	-2.95598	0.257584	15.806	15.806	-40.4179	-40.4179	24.3335	24.3335	
0.952381	-0.366472	0.873088	0.118352	1.30141	1.30141	-24.5347	-24.5347	23.1151	23.1151	-0.0745476	-3.01552	0.440165	15.8643	15.8643	-40.398	-40.398	24.0711	24.0711	
0.962406	-0.366481	0.872534	0.128637	1.45185	1.45185	-24.9354	-24.9354	23.3551	23.3551	-0.266314	-3.07805	0.623333	15.9315	15.9315	-40.4046	-40.4046	23.8256	23.8256	
0.972431	-0.366528	0.871971	0.139674	1.60512	1.60512	-25.3376	-25.3376	23.593	23.593	-0.457509	-3.14346	0.805268	16.0111	16.0111	-40.4398	-40.4398	23.5978	23.5978	
0.982456	-0.366614	0.871397	0.151382	1.76145	1.76145	-25.7418	-25.7418	23.8291	23.8291	-0.648584	-3.21161	0.984147	16.1065	16.1065	-40.5058	-40.5058	23.388	23.388	
0.992481	-0.366738	0.870812	0.163679	1.92111	1.92111	-26.1482	-26.1482	24.0636	24.0636	-0.839994	-3.28237	1.15815	16.2213	16.2213	-40.6049	-40.6049	23.197	23.197	
